<svg width="38" height="38" viewBox="0 0 38 38" fill="none" xmlns="http://www.w3.org/2000/svg">
<path fill-rule="evenodd" clip-rule="evenodd" d="M11.8195 1.68775C13.6768 1.60225 14.2689 1.58325 18.9999 1.58325C23.7309 1.58325 24.3231 1.60384 26.1788 1.68775C28.0344 1.77167 29.3011 2.06775 30.4094 2.49684C31.57 2.93542 32.6229 3.621 33.4937 4.50767C34.3804 5.37692 35.0644 6.42825 35.5014 7.59042C35.9321 8.69875 36.2266 9.96542 36.3121 11.8179C36.3976 13.6783 36.4166 14.2705 36.4166 18.9999C36.4166 23.7309 36.396 24.3231 36.3121 26.1803C36.2282 28.0328 35.9321 29.2995 35.5014 30.4078C35.0644 31.5701 34.3793 32.6232 33.4937 33.4937C32.6229 34.3804 31.57 35.0644 30.4094 35.5014C29.3011 35.9321 28.0344 36.2266 26.1819 36.3121C24.3231 36.3976 23.7309 36.4166 18.9999 36.4166C14.2689 36.4166 13.6768 36.396 11.8195 36.3121C9.967 36.2282 8.70034 35.9321 7.592 35.5014C6.42971 35.0644 5.37663 34.3792 4.50609 33.4937C3.62002 32.624 2.93433 31.5714 2.49684 30.4094C2.06775 29.3011 1.77325 28.0344 1.68775 26.1819C1.60225 24.3215 1.58325 23.7293 1.58325 18.9999C1.58325 14.2689 1.60384 13.6768 1.68775 11.8211C1.77167 9.96542 2.06775 8.69875 2.49684 7.59042C2.93498 6.42838 3.62119 5.37583 4.50767 4.50609C5.37698 3.62021 6.429 2.93454 7.59042 2.49684C8.69875 2.06775 9.967 1.77325 11.8195 1.68775ZM26.0378 4.82275C24.2012 4.73884 23.6502 4.72142 18.9999 4.72142C14.3497 4.72142 13.7987 4.73884 11.962 4.82275C10.2631 4.90034 9.34159 5.18375 8.72725 5.42284C7.915 5.7395 7.33392 6.11475 6.72434 6.72434C6.14649 7.2865 5.70179 7.97087 5.42284 8.72725C5.18375 9.34159 4.90034 10.2631 4.82275 11.962C4.73884 13.7987 4.72142 14.3497 4.72142 18.9999C4.72142 23.6502 4.73884 24.2012 4.82275 26.0378C4.90034 27.7368 5.18375 28.6583 5.42284 29.2726C5.7015 30.0278 6.14642 30.7134 6.72434 31.2755C7.28642 31.8534 7.972 32.2983 8.72725 32.577C9.34159 32.8161 10.2631 33.0995 11.962 33.1771C13.7987 33.261 14.3481 33.2784 18.9999 33.2784C23.6518 33.2784 24.2012 33.261 26.0378 33.1771C27.7368 33.0995 28.6583 32.8161 29.2726 32.577C30.0848 32.2603 30.6659 31.8851 31.2755 31.2755C31.8534 30.7134 32.2983 30.0278 32.577 29.2726C32.8161 28.6583 33.0995 27.7368 33.1771 26.0378C33.261 24.2012 33.2784 23.6502 33.2784 18.9999C33.2784 14.3497 33.261 13.7987 33.1771 11.962C33.0995 10.2631 32.8161 9.34159 32.577 8.72725C32.2603 7.915 31.8851 7.33392 31.2755 6.72434C30.7133 6.14653 30.0289 5.70184 29.2726 5.42284C28.6583 5.18375 27.7368 4.90034 26.0378 4.82275ZM16.7753 24.369C18.0177 24.8862 19.4011 24.956 20.6892 24.5665C21.9773 24.177 23.0903 23.3524 23.838 22.2335C24.5856 21.1146 24.9217 19.7708 24.7887 18.4317C24.6556 17.0925 24.0618 15.8411 23.1087 14.8912C22.501 14.2839 21.7663 13.819 20.9574 13.5297C20.1486 13.2405 19.2856 13.1342 18.4307 13.2186C17.5758 13.3029 16.7502 13.5757 16.0134 14.0174C15.2766 14.4591 14.6469 15.0586 14.1696 15.7728C13.6924 16.4871 13.3794 17.2983 13.2532 18.148C13.1271 18.9978 13.1909 19.8649 13.4401 20.687C13.6893 21.5091 14.1177 22.2657 14.6944 22.9024C15.2711 23.5391 15.9818 24.04 16.7753 24.369ZM12.6698 12.6698C13.501 11.8385 14.4879 11.179 15.5741 10.7292C16.6602 10.2793 17.8243 10.0477 18.9999 10.0477C20.1755 10.0477 21.3396 10.2793 22.4258 10.7292C23.5119 11.179 24.4988 11.8385 25.3301 12.6698C26.1614 13.501 26.8208 14.4879 27.2707 15.5741C27.7206 16.6602 27.9521 17.8243 27.9521 18.9999C27.9521 20.1755 27.7206 21.3396 27.2707 22.4258C26.8208 23.5119 26.1614 24.4988 25.3301 25.3301C23.6512 27.0089 21.3742 27.9521 18.9999 27.9521C16.6256 27.9521 14.3486 27.0089 12.6698 25.3301C10.9909 23.6512 10.0477 21.3742 10.0477 18.9999C10.0477 16.6256 10.9909 14.3486 12.6698 12.6698ZM29.9376 11.3809C30.1436 11.1866 30.3085 10.9529 30.4226 10.6937C30.5366 10.4345 30.5975 10.1551 30.6017 9.87189C30.6058 9.58873 30.5531 9.30762 30.4466 9.0452C30.3401 8.78278 30.1821 8.54439 29.9819 8.34415C29.7816 8.1439 29.5432 7.98587 29.2808 7.8794C29.0184 7.77294 28.7373 7.72021 28.4541 7.72434C28.1709 7.72847 27.8915 7.78937 27.6323 7.90344C27.3731 8.0175 27.1394 8.18242 26.9451 8.38842C26.5672 8.78905 26.3603 9.32119 26.3683 9.87189C26.3763 10.4226 26.5986 10.9485 26.9881 11.3379C27.3775 11.7274 27.9034 11.9497 28.4541 11.9577C29.0048 11.9658 29.537 11.7588 29.9376 11.3809Z" fill="black"/>
</svg>
