<svg width="80" height="80" viewBox="0 0 80 80" fill="none" xmlns="http://www.w3.org/2000/svg">
<path d="M65 30C65 29.2583 65.2199 28.5333 65.632 27.9166C66.044 27.2999 66.6297 26.8193 67.3149 26.5355C68.0001 26.2516 68.7541 26.1774 69.4816 26.3221C70.209 26.4668 70.8772 26.8239 71.4016 27.3484C71.9261 27.8728 72.2832 28.541 72.4279 29.2684C72.5726 29.9958 72.4984 30.7498 72.2145 31.4351C71.9307 32.1203 71.4501 32.706 70.8334 33.118C70.2167 33.5301 69.4917 33.75 68.75 33.75C67.7554 33.75 66.8016 33.3549 66.0983 32.6517C65.3951 31.9484 65 30.9946 65 30ZM61.25 22.5C61.9917 22.5 62.7167 22.2801 63.3334 21.868C63.9501 21.456 64.4307 20.8703 64.7145 20.1851C64.9984 19.4998 65.0726 18.7458 64.9279 18.0184C64.7832 17.291 64.4261 16.6228 63.9016 16.0984C63.3772 15.5739 62.709 15.2168 61.9816 15.0721C61.2541 14.9274 60.5001 15.0016 59.8149 15.2855C59.1297 15.5693 58.544 16.0499 58.132 16.6666C57.7199 17.2833 57.5 18.0083 57.5 18.75C57.5 19.7446 57.8951 20.6984 58.5983 21.4017C59.3016 22.1049 60.2554 22.5 61.25 22.5ZM70.2062 40C69.5457 39.9455 68.8906 40.1556 68.3849 40.5839C67.8792 41.0123 67.5643 41.6239 67.5094 42.2844C67.062 47.5108 65.1311 52.5007 61.944 56.667C58.7569 60.8333 54.4461 64.0027 49.5189 65.8022C44.5916 67.6016 39.2529 67.9564 34.1309 66.8246C29.0089 65.6929 24.3167 63.1218 20.6064 59.4138C16.896 55.7058 14.322 51.0152 13.187 45.8939C12.052 40.7726 12.4034 35.4337 14.1998 30.5053C15.9962 25.5769 19.1628 21.2642 23.3271 18.0744C27.4914 14.8847 32.4801 12.9507 37.7062 12.5C38.0345 12.4729 38.3543 12.3814 38.6472 12.2308C38.9402 12.0801 39.2006 11.8732 39.4136 11.6219C39.6266 11.3706 39.788 11.0798 39.8886 10.7662C39.9892 10.4525 40.0271 10.1221 40 9.79376C39.9729 9.46545 39.8814 9.1457 39.7308 8.85275C39.5801 8.5598 39.3732 8.2994 39.1219 8.0864C38.8706 7.87341 38.5798 7.712 38.2661 7.61138C37.9525 7.51077 37.622 7.47292 37.2937 7.50001C31.1188 8.03115 25.224 10.3148 20.3029 14.0824C15.3818 17.8499 11.6391 22.9446 9.51508 28.767C7.39107 34.5894 6.97416 40.8973 8.31338 46.9486C9.6526 52.9999 12.6922 58.5428 17.0747 62.9253C21.4571 67.3077 27.0001 70.3474 33.0514 71.6866C39.1027 73.0258 45.4106 72.6089 51.233 70.4849C57.0554 68.3609 62.1501 64.6182 65.9176 59.6971C69.6852 54.776 71.9688 48.8812 72.5 42.7063C72.5282 42.3777 72.4912 42.0469 72.391 41.7327C72.2908 41.4186 72.1295 41.1273 71.9163 40.8758C71.7031 40.6243 71.4422 40.4174 71.1487 40.2671C70.8553 40.1168 70.5349 40.026 70.2062 40ZM40 17.5C44.4501 17.5 48.8002 18.8196 52.5003 21.2919C56.2004 23.7643 59.0843 27.2783 60.7873 31.3896C62.4902 35.501 62.9358 40.025 62.0676 44.3895C61.1995 48.7541 59.0566 52.7632 55.9099 55.9099C52.7632 59.0566 48.7541 61.1995 44.3895 62.0677C40.0249 62.9358 35.5009 62.4903 31.3896 60.7873C27.2783 59.0843 23.7642 56.2004 21.2919 52.5003C18.8196 48.8002 17.5 44.4501 17.5 40C17.5066 34.0347 19.8793 28.3156 24.0974 24.0974C28.3155 19.8793 34.0346 17.5066 40 17.5ZM37.5 40C37.5 40.6631 37.7634 41.2989 38.2322 41.7678C38.7011 42.2366 39.3369 42.5 40 42.5H55C55.663 42.5 56.2989 42.2366 56.7677 41.7678C57.2366 41.2989 57.5 40.6631 57.5 40C57.5 39.337 57.2366 38.7011 56.7677 38.2322C56.2989 37.7634 55.663 37.5 55 37.5H42.5V25C42.5 24.337 42.2366 23.7011 41.7677 23.2322C41.2989 22.7634 40.663 22.5 40 22.5C39.3369 22.5 38.7011 22.7634 38.2322 23.2322C37.7634 23.7011 37.5 24.337 37.5 25V40ZM50 15C50.7417 15 51.4667 14.7801 52.0834 14.368C52.7001 13.956 53.1807 13.3703 53.4645 12.6851C53.7484 11.9998 53.8226 11.2459 53.6779 10.5184C53.5332 9.79099 53.1761 9.12281 52.6516 8.59836C52.1272 8.07391 51.459 7.71676 50.7316 7.57207C50.0041 7.42737 49.2501 7.50163 48.5649 7.78546C47.8797 8.06929 47.294 8.54994 46.882 9.16662C46.4699 9.78331 46.25 10.5083 46.25 11.25C46.25 12.2446 46.6451 13.1984 47.3483 13.9017C48.0516 14.6049 49.0054 15 50 15Z" fill="#FFD233"/>
</svg>
