<svg width="80" height="80" viewBox="0 0 80 80" fill="none" xmlns="http://www.w3.org/2000/svg">
<g clip-path="url(#clip0_5_69)">
<path d="M51.2625 18.215C51.0306 18.4474 50.7551 18.6317 50.4518 18.7575C50.1485 18.8833 49.8234 18.948 49.495 18.948C49.1667 18.948 48.8416 18.8833 48.5383 18.7575C48.235 18.6317 47.9595 18.4474 47.7275 18.215C47.0421 17.5273 46.2272 16.9822 45.33 16.6111C44.4328 16.2399 43.471 16.0501 42.5 16.0525C40.45 16.0525 38.6175 16.875 37.2725 18.215C37.0404 18.4471 36.7649 18.6312 36.4616 18.7568C36.1583 18.8825 35.8333 18.9471 35.505 18.9471C34.8421 18.9471 34.2063 18.6838 33.7375 18.215C33.5054 17.9829 33.3213 17.7073 33.1957 17.4041C33.0701 17.1008 33.0054 16.7758 33.0054 16.4475C33.0054 15.7846 33.2688 15.1488 33.7375 14.68C34.8875 13.5285 36.2535 12.6153 37.7572 11.9928C39.2609 11.3703 40.8726 11.0508 42.5 11.0525C44.1275 11.0508 45.7392 11.3703 47.2429 11.9928C48.7466 12.6153 50.1126 13.5285 51.2625 14.68C51.7312 15.1488 51.9945 15.7846 51.9945 16.4475C51.9945 17.1104 51.7312 17.7462 51.2625 18.215ZM22.235 15.8275C20.0273 17.1186 18.03 18.7399 16.3125 20.635L16.31 20.6375C14.5881 22.5409 13.169 24.6978 12.1025 27.0325C11.0085 29.4287 10.3038 31.9842 10.015 34.6025C9.97893 34.9288 10.0075 35.2591 10.099 35.5744C10.1905 35.8897 10.3432 36.1839 10.5484 36.4402C10.7537 36.6965 11.0073 36.9099 11.295 37.0681C11.5827 37.2263 11.8987 37.3264 12.225 37.3625C12.5514 37.3986 12.8816 37.3701 13.1969 37.2786C13.5123 37.1871 13.8065 37.0343 14.0628 36.8291C14.319 36.6239 14.5324 36.3702 14.6907 36.0825C14.8489 35.7949 14.9489 35.4788 14.985 35.1525C15.2166 33.0618 15.7795 31.0212 16.6525 29.1075C18.3663 25.3563 21.197 22.2261 24.7575 20.145C25.041 19.9794 25.2891 19.7595 25.4877 19.498C25.6862 19.2365 25.8313 18.9385 25.9146 18.6209C25.9979 18.3033 26.0179 17.9724 25.9734 17.6471C25.9288 17.3218 25.8207 17.0085 25.655 16.725C25.4894 16.4415 25.2696 16.1934 25.0081 15.9949C24.7466 15.7964 24.4485 15.6513 24.1309 15.5679C23.4896 15.3996 22.8076 15.493 22.235 15.8275ZM60 43.75C60 43.087 60.2634 42.4511 60.7323 41.9822C61.2011 41.5134 61.837 41.25 62.5 41.25C63.1631 41.25 63.799 41.5134 64.2678 41.9822C64.7367 42.4511 65 43.087 65 43.75C64.9966 46.0055 64.1208 48.1722 62.5561 49.7966C60.9913 51.421 58.8588 52.3772 56.605 52.465C57.1626 53.6125 57.5 54.8875 57.5 56.25C57.5 56.913 57.2367 57.5489 56.7678 58.0178C56.299 58.4866 55.6631 58.75 55 58.75C54.337 58.75 53.7011 58.4866 53.2323 58.0178C52.7634 57.5489 52.5 56.913 52.5 56.25C52.4987 55.2558 52.1032 54.3028 51.4002 53.5998C50.6973 52.8968 49.7442 52.5013 48.75 52.5H33.295C32.632 52.5 31.9961 52.2366 31.5273 51.7678C31.0584 51.2989 30.795 50.663 30.795 50C30.795 49.337 31.0584 48.7011 31.5273 48.2322C31.9961 47.7634 32.632 47.5 33.295 47.5H38.75C39.744 47.498 40.6967 47.1023 41.3995 46.3995C42.1023 45.6966 42.4981 44.7439 42.5 43.75C42.5 43.087 42.7634 42.4511 43.2323 41.9822C43.7011 41.5134 44.337 41.25 45 41.25C45.6631 41.25 46.299 41.5134 46.7678 41.9822C47.2367 42.4511 47.5 43.087 47.5 43.75C47.5 45.0975 47.17 46.36 46.625 47.5H56.25C57.244 47.498 58.1967 47.1023 58.8995 46.3995C59.6023 45.6966 59.9981 44.7439 60 43.75Z" fill="#FFD233"/>
<path d="M80 41.7775C80 40.2075 79.8875 38.6875 79.715 37.2125C77.4475 17.6675 60.87 2.505 40.7225 2.5H37.6425C16.85 2.5025 0.0025 19.35 0 40.1425C0 42.0936 0.384301 44.0256 1.13096 45.8282C1.87762 47.6308 2.97201 49.2687 4.35166 50.6483C7.13798 53.4347 10.917 55 14.8575 55H17.96C18.8008 58.5567 20.8171 61.7257 23.6826 63.9941C26.5481 66.2626 30.0953 67.4979 33.75 67.5H51.51L59.3 75.29C59.5622 75.5519 59.8962 75.7302 60.2597 75.8024C60.6232 75.8746 60.9999 75.8375 61.3423 75.6957C61.6847 75.5539 61.9774 75.3139 62.1835 75.0058C62.3895 74.6978 62.4997 74.3356 62.5 73.965V67.2925C66.3429 66.814 69.9637 65.2285 72.9217 62.7291C75.8796 60.2297 78.047 56.9242 79.16 53.215C79.5175 52.02 79.7225 50.76 79.8525 49.4775L79.86 49.4575C79.93 49.2275 80 49 80 48.75C80 48.5975 79.99 48.445 79.98 48.295L79.9625 48.0075C79.9625 47.9275 79.9725 47.85 79.98 47.775C79.99 47.6825 80 47.5925 80 47.5V41.7775ZM74.37 51.7875C73.447 54.882 71.55 57.596 68.961 59.5261C66.372 61.4561 63.2292 62.4991 60 62.5H33.75C30.9444 62.4997 28.2403 61.4507 26.1685 59.5588C24.0967 57.667 22.807 55.069 22.5525 52.275L22.5375 52.115C22.6211 48.868 23.9718 45.7827 26.3007 43.5187C28.6296 41.2547 31.752 39.9917 35 40C35.663 40 36.2989 39.7366 36.7678 39.2678C37.2366 38.7989 37.5 38.163 37.5 37.5C37.5 36.837 37.2366 36.2011 36.7678 35.7322C36.2989 35.2634 35.663 35 35 35C32.0637 34.9961 29.1741 35.7349 26.6 37.1475C26.1076 36.0434 25.4199 35.0373 24.57 34.1775C24.1012 33.7087 23.4654 33.4454 22.8025 33.4454C22.1396 33.4454 21.5038 33.7087 21.035 34.1775C20.5662 34.6463 20.3029 35.2821 20.3029 35.945C20.3029 36.6079 20.5662 37.2437 21.035 37.7125C21.745 38.425 22.2275 39.3375 22.41 40.36C19.8669 42.9992 18.219 46.3719 17.7 50H14.8575C13.5624 50.0019 12.2796 49.7478 11.083 49.2522C9.88644 48.7567 8.7996 48.0295 7.885 47.1125C6.96842 46.1982 6.24166 45.1118 5.74654 43.9156C5.25141 42.7194 4.9977 41.4371 5 40.1425C5 31.12 8.65 22.975 14.56 17.06C17.5875 14.0238 21.1854 11.6161 25.1468 9.97547C29.1082 8.3348 33.3548 7.49352 37.6425 7.5H40.7225C57.4475 7.495 71.3375 19.5 74.35 35.3475C71.5952 32.6563 68.0766 30.8813 64.275 30.265C65.5325 27.96 66.25 25.3125 66.25 22.5C66.25 21.837 65.9866 21.2011 65.5178 20.7322C65.0489 20.2634 64.413 20 63.75 20C63.087 20 62.4511 20.2634 61.9822 20.7322C61.5134 21.2011 61.25 21.837 61.25 22.5C61.2526 23.9778 60.9628 25.4414 60.3973 26.8067C59.8318 28.172 59.0018 29.4119 57.955 30.455C56.9119 31.5018 55.672 32.3318 54.3067 32.8973C52.9414 33.4628 51.4778 33.7526 50 33.75C49.337 33.75 48.7011 34.0134 48.2322 34.4822C47.7634 34.9511 47.5 35.587 47.5 36.25C47.5 36.913 47.7634 37.5489 48.2322 38.0178C48.7011 38.4866 49.337 38.75 50 38.75C53.865 38.7523 57.6032 37.3706 60.5375 34.855L60.5775 34.8675C60.7937 34.9454 61.0204 34.9901 61.25 35C65.055 35 68.4775 36.535 70.9725 39.0275C73.368 41.4239 74.7896 44.6235 74.9625 48.0075C74.927 49.2876 74.7279 50.5579 74.37 51.7875Z" fill="#FFD233"/>
</g>
<defs>
<clipPath id="clip0_5_69">
<rect width="80" height="80" fill="white"/>
</clipPath>
</defs>
</svg>
