<svg width="80" height="80" viewBox="0 0 80 80" fill="none" xmlns="http://www.w3.org/2000/svg">
<g clip-path="url(#clip0_5_79)">
<path d="M5 25C5 21.6848 6.31696 18.5054 8.66117 16.1612C11.0054 13.817 14.1848 12.5 17.5 12.5H42.5C45.8152 12.5 48.9946 13.817 51.3388 16.1612C53.683 18.5054 55 21.6848 55 25V55C55.001 57.7339 54.1057 60.3927 52.4512 62.5691C50.7968 64.7455 48.4745 66.3195 45.84 67.05C49.2967 61.5121 50.6705 54.925 49.7158 48.467C48.7611 42.009 45.5402 36.1013 40.629 31.8004C35.7178 27.4995 29.4368 25.086 22.9093 24.9916C16.3817 24.8972 10.0335 27.128 5 31.285V25ZM60 29.46L70.92 20.555C71.2863 20.2562 71.7299 20.0675 72.1991 20.0106C72.6684 19.9537 73.1442 20.031 73.5713 20.2336C73.9984 20.4361 74.3593 20.7556 74.6122 21.155C74.8651 21.5544 74.9995 22.0173 75 22.49V57.49C75.0005 57.9631 74.8667 58.4267 74.6142 58.8268C74.3617 59.2269 74.0008 59.5472 73.5735 59.7503C73.1463 59.9535 72.6701 60.0313 72.2004 59.9746C71.7307 59.9179 71.2867 59.729 70.92 59.43L60 50.535V29.46ZM41.215 65C43.6892 61.3013 45.0068 56.95 45 52.5C44.9994 49.0656 44.2127 45.6769 42.7 42.5936C41.1873 39.5103 38.9889 36.8141 36.2731 34.7118C33.5574 32.6095 30.3964 31.1567 27.0324 30.4649C23.6684 29.7731 20.1907 29.8605 16.8657 30.7206C13.5407 31.5806 10.4568 33.1903 7.85011 35.4265C5.24345 37.6626 3.18329 40.4658 1.82748 43.6213C0.471675 46.7767 -0.143789 50.2007 0.0282497 53.6308C0.200289 57.0609 1.15526 60.406 2.82 63.41L0.095002 72.355C-0.0105042 72.7091 -0.0183359 73.0852 0.0723353 73.4434C0.163007 73.8016 0.348809 74.1286 0.610089 74.3899C0.871368 74.6512 1.19841 74.837 1.55662 74.9277C1.91482 75.0183 2.29088 75.0105 2.645 74.905L11.595 72.185C14.9309 74.0368 18.6846 75.0057 22.5 75C30.3 75 37.18 71.03 41.215 65ZM12.505 60C11.842 60.0007 11.2058 59.7379 10.7365 59.2695C10.2672 58.8012 10.0032 58.1655 10.0025 57.5025C10.0018 56.8395 10.2646 56.2033 10.733 55.734C11.2013 55.2647 11.837 55.0007 12.5 55H22.5C23.163 55 23.7989 55.2634 24.2678 55.7322C24.7366 56.2011 25 56.837 25 57.5C25 58.163 24.7366 58.7989 24.2678 59.2678C23.7989 59.7366 23.163 60 22.5 60H12.505ZM10 47.5C10 46.837 10.2634 46.2011 10.7322 45.7322C11.2011 45.2634 11.837 45 12.5 45H32.5C33.163 45 33.7989 45.2634 34.2678 45.7322C34.7366 46.2011 35 46.837 35 47.5C35 48.163 34.7366 48.7989 34.2678 49.2678C33.7989 49.7366 33.163 50 32.5 50H12.5C11.837 50 11.2011 49.7366 10.7322 49.2678C10.2634 48.7989 10 48.163 10 47.5Z" fill="#FFD233"/>
</g>
<defs>
<clipPath id="clip0_5_79">
<rect width="80" height="80" fill="white"/>
</clipPath>
</defs>
</svg>
